<mxfile host="app.diagrams.net" modified="2025-01-01T00:00:00.000Z" agent="chatgpt" version="22.0.0">
  <diagram id="IoT" name="Arquitetura">
    <mxGraphModel dx="1000" dy="1000" grid="1" gridSize="10" guides="1" tooltips="1" connect="1" arrows="1" fold="1" page="1" pageScale="1" pageWidth="1920" pageHeight="1080" background="#ffffff">
      <root><mxCell id="0"/><mxCell id="1" parent="0"/></root>
    </mxGraphModel>
  </diagram>
</mxfile>
